<svg width="49.99999999999999" height="49.99999999999999" xmlns="http://www.w3.org/2000/svg">

 <g>
  <title>background</title>
  <rect fill="none" id="canvas_background" height="402" width="582" y="-1" x="-1"/>
 </g>
 <g>
  <title>Layer 1</title>
  <ellipse stroke="null" ry="21.739025" rx="21.739025" id="svg_2" cy="24.999998" cx="24.776348" stroke-opacity="null" stroke-width="null" fill="#ffffff"/>
  <path stroke="null" id="Cat_2_" fill="#282828" d="m29.84646,42.372314l-4.316308,0l-4.316308,0c0,0 0,-2.589785 0,-4.316308c-5.934924,1.294893 -7.55354,-3.237231 -7.55354,-3.237231c-1.079077,-2.158154 -2.158154,-3.237231 -2.158154,-3.237231c-2.158154,-1.294893 0,-1.079077 0,-1.079077c2.158154,0 3.237231,2.158154 3.237231,2.158154c1.942339,3.237231 5.287478,2.697693 6.474463,2.158154c0,-1.079077 0.431631,-2.697693 1.079077,-3.237231c-4.747939,-0.539539 -8.632617,-3.237231 -8.632617,-8.632617s1.079077,-6.474463 2.158154,-7.55354c-0.215815,-0.539539 -1.079077,-2.481877 0,-5.395386c0,0 2.158154,0 4.316308,3.237231c1.079077,-1.079077 4.316308,-1.079077 5.395386,-1.079077c1.079077,0 4.316308,0 5.395386,1.079077c2.158154,-3.237231 4.316308,-3.237231 4.316308,-3.237231c1.186985,2.913508 0.215815,4.855847 0,5.395386c1.079077,1.079077 2.158154,2.158154 2.158154,7.55354s-3.884678,8.093078 -8.632617,8.632617c0.647446,0.539539 1.079077,2.37397 1.079077,3.237231l0,7.55354l0,0z"/>
  <path stroke="null" id="svg_1" fill="#282828" d="m24.955271,0.105392c-13.870127,0 -25.028801,11.138294 -25.028801,24.983089s11.158674,24.983089 25.028801,24.983089s25.028801,-11.138294 25.028801,-24.983089s-11.158674,-24.983089 -25.028801,-24.983089zm0,44.761367c-10.950101,0 -19.814468,-8.848177 -19.814468,-19.778279s8.864367,-19.778279 19.814468,-19.778279s19.814468,8.848177 19.814468,19.778279s-8.864367,19.778279 -19.814468,19.778279z"/>
 </g>
</svg>