<svg width="300.439" height="300.439" xmlns="http://www.w3.org/2000/svg">

 <g>
  <title>background</title>
  <rect fill="none" id="canvas_background" height="402" width="582" y="-1" x="-1"/>
 </g>
 <g>
  <title>Layer 1</title>
  <g id="svg_1">
   <path id="svg_2" fill="#BF392C" d="m276.967,0l-84.498,0l-122.054,178.385l84.498,0l122.054,-178.385z"/>
   <path id="svg_3" fill="#E2574C" d="m23.472,0l84.498,0l122.053,178.385l-84.498,0l-122.053,-178.385z"/>
   <path id="svg_4" fill="#EFC75E" d="m154.914,93.887c57.271,0 103.276,46.005 103.276,103.276s-46.005,103.276 -103.276,103.276s-103.276,-46.005 -103.276,-103.276s46.005,-103.276 103.276,-103.276z"/>
   <path id="svg_5" fill="#b59138" d="m154.914,122.053c-41.31,0 -75.11,33.799 -75.11,75.11s33.799,75.11 75.11,75.11s75.11,-33.799 75.11,-75.11s-33.8,-75.11 -75.11,-75.11zm0,131.442c-30.983,0 -56.332,-25.35 -56.332,-56.332s25.35,-56.332 56.332,-56.332s56.332,25.35 56.332,56.332s-25.35,56.332 -56.332,56.332z"/>
  </g>
  <g id="svg_6"/>
  <g id="svg_7"/>
  <g id="svg_8"/>
  <g id="svg_9"/>
  <g id="svg_10"/>
  <g id="svg_11"/>
  <g id="svg_12"/>
  <g id="svg_13"/>
  <g id="svg_14"/>
  <g id="svg_15"/>
  <g id="svg_16"/>
  <g id="svg_17"/>
  <g id="svg_18"/>
  <g id="svg_19"/>
  <g id="svg_20"/>
  <text xml:space="preserve" text-anchor="start" font-family="Helvetica, Arial, sans-serif" font-size="111" id="svg_31" y="236.719513" x="119.719482" stroke-opacity="null" stroke-width="0" stroke="null" fill="#9b6425">1</text>
 </g>
</svg>