<svg width="322.66667" height="197" xmlns="http://www.w3.org/2000/svg">
 <title>Gold Crown</title>

 <metadata id="metadata7">image/svg+xml</metadata>
 <g>
  <title>background</title>
  <rect fill="none" id="canvas_background" height="199" width="324.66667" y="-1" x="-1"/>
 </g>
 <g>
  <title>Layer 1</title>
  <g id="svg_2">
   <path id="path3165" d="m122.93991,130.05495c0.00519,9.00781 -7.29558,16.31279 -16.30337,16.31279c-9.00778,0 -16.30853,-7.30498 -16.30334,-16.31279c-0.00519,-9.0078 7.29556,-16.31278 16.30334,-16.31278c9.00779,0 16.30856,7.30498 16.30337,16.31278z" stroke-dashoffset="0" stroke-miterlimit="4" marker-end="none" marker-mid="none" marker-start="none" fill-rule="evenodd" fill="#ffcc00"/>
   <path id="path3167" d="m111.66618,119.60295c0.00114,1.12428 -0.59797,2.16359 -1.57137,2.726c-0.97345,0.56245 -2.17307,0.56245 -3.14651,0c-0.97342,-0.56241 -1.57254,-1.60172 -1.57136,-2.726c-0.00119,-1.12424 0.59794,-2.16359 1.57136,-2.72601c0.97344,-0.5625 2.17306,-0.5625 3.14651,0c0.9734,0.56242 1.57251,1.60177 1.57137,2.72601z" stroke-dashoffset="0" stroke-miterlimit="4" marker-end="none" marker-mid="none" marker-start="none" fill-rule="evenodd" fill="#ffcc00"/>
   <path id="path3169" d="m120.5192,126.8566c0.00114,1.12428 -0.59797,2.16359 -1.57135,2.72604c-0.97347,0.56246 -2.1731,0.56246 -3.14654,0c-0.9734,-0.56245 -1.57251,-1.60176 -1.57137,-2.72604c-0.00114,-1.12421 0.59797,-2.16355 1.57137,-2.72597c0.97344,-0.5625 2.17307,-0.5625 3.14654,0c0.97338,0.56242 1.57249,1.60176 1.57135,2.72597z" stroke-dashoffset="0" stroke-miterlimit="4" marker-end="none" marker-mid="none" marker-start="none" fill-rule="evenodd" fill="#ffcc00"/>
   <path id="path3171" d="m110.44755,129.82642c0.00136,1.32165 -0.70294,2.54348 -1.84727,3.20463c-1.14436,0.66123 -2.55464,0.66123 -3.699,0c-1.14433,-0.66115 -1.84862,-1.88298 -1.84727,-3.20463c-0.00135,-1.32163 0.70294,-2.54351 1.84727,-3.20468c1.14436,-0.66123 2.55464,-0.66123 3.699,0c1.14433,0.66117 1.84863,1.88305 1.84727,3.20468z" stroke-dashoffset="0" stroke-miterlimit="4" marker-end="none" marker-mid="none" marker-start="none" fill-rule="evenodd" fill="#ffcc00"/>
   <path id="path3173" d="m101.32794,123.08693c0.00117,1.12428 -0.59794,2.16356 -1.57136,2.72601c-0.97345,0.56246 -2.17305,0.56246 -3.14653,0c-0.9734,-0.56245 -1.57251,-1.60173 -1.57135,-2.72601c-0.00116,-1.12419 0.59795,-2.16355 1.57135,-2.726c0.97348,-0.56245 2.17308,-0.56245 3.14653,0c0.97342,0.56245 1.57253,1.60181 1.57136,2.726z" stroke-dashoffset="0" stroke-miterlimit="4" marker-end="none" marker-mid="none" marker-start="none" fill-rule="evenodd" fill="#ffcc00"/>
   <path id="path3175" d="m99.27177,133.36789c0.00114,1.12428 -0.59796,2.16354 -1.57139,2.726c-0.97344,0.56247 -2.17305,0.56247 -3.14651,0c-0.97341,-0.56246 -1.57252,-1.60172 -1.57136,-2.726c-0.00116,-1.12421 0.59795,-2.16355 1.57136,-2.72601c0.97346,-0.56246 2.17307,-0.56246 3.14651,0c0.97343,0.56246 1.57253,1.6018 1.57139,2.72601z" stroke-dashoffset="0" stroke-miterlimit="4" marker-end="none" marker-mid="none" marker-start="none" fill-rule="evenodd" fill="#ffcc00"/>
   <path id="path3177" d="m107.61079,140.67883c0.00115,1.12429 -0.59796,2.16355 -1.57135,2.72602c-0.97345,0.56245 -2.17308,0.56245 -3.14652,0c-0.97339,-0.56247 -1.57251,-1.60173 -1.57136,-2.72602c-0.00115,-1.1242 0.59797,-2.16354 1.57136,-2.726c0.97344,-0.56246 2.17307,-0.56246 3.14652,0c0.97339,0.56246 1.5725,1.6018 1.57135,2.726z" stroke-dashoffset="0" stroke-miterlimit="4" marker-end="none" marker-mid="none" marker-start="none" fill-rule="evenodd" fill="#ffcc00"/>
   <path id="path3179" d="m118.23447,136.79491c0.00113,1.12423 -0.59796,2.16354 -1.57138,2.72595c-0.97345,0.5625 -2.17307,0.5625 -3.14653,0c-0.97339,-0.56241 -1.5725,-1.60172 -1.57136,-2.72595c-0.00114,-1.12426 0.59797,-2.16359 1.57136,-2.72606c0.97346,-0.56246 2.17308,-0.56246 3.14653,0c0.97341,0.56247 1.57251,1.60181 1.57138,2.72606z" stroke-dashoffset="0" stroke-miterlimit="4" marker-end="none" marker-mid="none" marker-start="none" fill-rule="evenodd" fill="#ffcc00"/>
   <path id="path4073" d="m71.30645,138.39409c0.00519,9.00781 -7.29559,16.31282 -16.30337,16.31282c-9.00777,0 -16.30853,-7.30501 -16.30335,-16.31282c-0.00518,-9.00772 7.29558,-16.31273 16.30335,-16.31273c9.00778,0 16.30856,7.30501 16.30337,16.31273z" stroke-dashoffset="0" stroke-miterlimit="4" marker-end="none" marker-mid="none" marker-start="none" fill-rule="evenodd" fill="#ffcc00"/>
   <path id="path4075" d="m60.03284,127.94212c0.00115,1.12426 -0.59796,2.16356 -1.57136,2.72597c-0.97346,0.5625 -2.17307,0.5625 -3.14654,0c-0.97339,-0.56241 -1.57251,-1.60172 -1.57133,-2.72597c-0.00118,-1.12419 0.59794,-2.16357 1.57133,-2.72604c0.97347,-0.56245 2.17308,-0.56245 3.14654,0c0.9734,0.56247 1.57251,1.60185 1.57136,2.72604z" stroke-dashoffset="0" stroke-miterlimit="4" marker-end="none" marker-mid="none" marker-start="none" fill-rule="evenodd" fill="#ffcc00"/>
   <path id="path4077" d="m68.88573,135.19579c0.00116,1.12428 -0.59796,2.16359 -1.57135,2.72599c-0.97347,0.56247 -2.17308,0.56247 -3.14652,0c-0.97342,-0.5624 -1.57254,-1.60171 -1.57137,-2.72599c-0.00117,-1.12421 0.59795,-2.16359 1.57137,-2.72597c0.97344,-0.5625 2.17305,-0.5625 3.14652,0c0.97339,0.56238 1.57251,1.60176 1.57135,2.72597z" stroke-dashoffset="0" stroke-miterlimit="4" marker-end="none" marker-mid="none" marker-start="none" fill-rule="evenodd" fill="#ffcc00"/>
   <path id="path4079" d="m58.81422,138.16559c0.00135,1.32167 -0.70294,2.54346 -1.84728,3.20463c-1.14437,0.66127 -2.55462,0.66127 -3.699,0c-1.14433,-0.66117 -1.84862,-1.88296 -1.84726,-3.20463c-0.00137,-1.32163 0.70293,-2.54349 1.84726,-3.20467c1.14438,-0.66124 2.55463,-0.66124 3.699,0c1.14434,0.66118 1.84863,1.88304 1.84728,3.20467z" stroke-dashoffset="0" stroke-miterlimit="4" marker-end="none" marker-mid="none" marker-start="none" fill-rule="evenodd" fill="#ffcc00"/>
   <path id="path4081" d="m49.69461,131.42609c0.00116,1.12426 -0.59795,2.16357 -1.57136,2.72604c-0.97345,0.56245 -2.17307,0.56245 -3.14652,0c-0.9734,-0.56247 -1.57252,-1.60178 -1.57135,-2.72604c-0.00117,-1.12421 0.59795,-2.16356 1.57135,-2.72597c0.97345,-0.5625 2.17307,-0.5625 3.14652,0c0.97341,0.56241 1.57252,1.60176 1.57136,2.72597z" stroke-dashoffset="0" stroke-miterlimit="4" marker-end="none" marker-mid="none" marker-start="none" fill-rule="evenodd" fill="#ffcc00"/>
   <path id="path4083" d="m47.63842,141.70708c0.00116,1.12423 -0.59795,2.16359 -1.57136,2.726c-0.97345,0.5625 -2.17307,0.5625 -3.14653,0c-0.97339,-0.56241 -1.57251,-1.60177 -1.57136,-2.726c-0.00115,-1.12421 0.59797,-2.16359 1.57136,-2.72602c0.97346,-0.56245 2.17308,-0.56245 3.14653,0c0.97341,0.56243 1.57252,1.60181 1.57136,2.72602z" stroke-dashoffset="0" stroke-miterlimit="4" marker-end="none" marker-mid="none" marker-start="none" fill-rule="evenodd" fill="#ffcc00"/>
   <path id="path4085" d="m55.97745,149.01802c0.00116,1.12424 -0.59796,2.16359 -1.57137,2.726c-0.97344,0.5625 -2.17305,0.5625 -3.1465,0c-0.9734,-0.56241 -1.5725,-1.60176 -1.57136,-2.726c-0.00114,-1.12424 0.59796,-2.16359 1.57136,-2.72601c0.97345,-0.56249 2.17306,-0.56249 3.1465,0c0.97341,0.56242 1.57253,1.60177 1.57137,2.72601z" stroke-dashoffset="0" stroke-miterlimit="4" marker-end="none" marker-mid="none" marker-start="none" fill-rule="evenodd" fill="#ffcc00"/>
   <path id="path4087" d="m66.6011,145.13405c0.00116,1.12427 -0.59793,2.16359 -1.57134,2.726c-0.97344,0.56245 -2.17308,0.56245 -3.14652,0c-0.9734,-0.56241 -1.57252,-1.60173 -1.57136,-2.726c-0.00116,-1.12421 0.59796,-2.16356 1.57136,-2.72597c0.97344,-0.56254 2.17308,-0.56254 3.14652,0c0.97341,0.56241 1.5725,1.60176 1.57134,2.72597z" stroke-dashoffset="0" stroke-miterlimit="4" marker-end="none" marker-mid="none" marker-start="none" fill-rule="evenodd" fill="#ffcc00"/>
   <path id="path4089" d="m178.80003,127.54207c0.00519,9.00777 -7.29559,16.31277 -16.30336,16.31277c-9.00778,0 -16.30854,-7.305 -16.30336,-16.31277c-0.00518,-9.00781 7.29558,-16.31281 16.30336,-16.31281c9.00777,0 16.30855,7.305 16.30336,16.31281z" stroke-dashoffset="0" stroke-miterlimit="4" marker-end="none" marker-mid="none" marker-start="none" fill-rule="evenodd" fill="#ffcc00"/>
   <path id="path4091" d="m167.52643,117.0899c0.00114,1.12429 -0.59796,2.16355 -1.57137,2.726c-0.97345,0.56247 -2.17308,0.56247 -3.14651,0c-0.97342,-0.56245 -1.57253,-1.60171 -1.57138,-2.726c-0.00115,-1.1242 0.59796,-2.16354 1.57138,-2.72601c0.97343,-0.56245 2.17306,-0.56245 3.14651,0c0.97341,0.56247 1.57251,1.60181 1.57137,2.72601z" stroke-dashoffset="0" stroke-miterlimit="4" marker-end="none" marker-mid="none" marker-start="none" fill-rule="evenodd" fill="#ffcc00"/>
   <path id="path4093" d="m176.37932,124.3436c0.00116,1.12423 -0.59795,2.16354 -1.57137,2.72596c-0.97345,0.5625 -2.17306,0.5625 -3.14651,0c-0.97339,-0.56242 -1.57253,-1.60173 -1.57137,-2.72596c-0.00116,-1.12421 0.59798,-2.16359 1.57137,-2.72602c0.97345,-0.56245 2.17306,-0.56245 3.14651,0c0.97342,0.56243 1.57253,1.60181 1.57137,2.72602z" stroke-dashoffset="0" stroke-miterlimit="4" marker-end="none" marker-mid="none" marker-start="none" fill-rule="evenodd" fill="#ffcc00"/>
   <path id="path4095" d="m166.30768,127.31337c0.00134,1.32165 -0.70296,2.54344 -1.84729,3.20464c-1.14436,0.66127 -2.55461,0.66127 -3.69898,0c-1.14433,-0.6612 -1.84863,-1.88298 -1.84727,-3.20464c-0.00136,-1.32159 0.70294,-2.54346 1.84727,-3.20464c1.14437,-0.66127 2.55461,-0.66127 3.69898,0c1.14433,0.66118 1.84863,1.88304 1.84729,3.20464z" stroke-dashoffset="0" stroke-miterlimit="4" marker-end="none" marker-mid="none" marker-start="none" fill-rule="evenodd" fill="#ffcc00"/>
   <path id="path4097" d="m157.1882,120.57393c0.00115,1.12421 -0.59796,2.16356 -1.57136,2.72597c-0.97345,0.56245 -2.17308,0.56245 -3.14652,0c-0.97342,-0.56241 -1.57252,-1.60177 -1.57135,-2.72597c-0.00117,-1.12424 0.59793,-2.16362 1.57135,-2.726c0.97344,-0.5625 2.17307,-0.5625 3.14652,0c0.9734,0.56238 1.57251,1.60176 1.57136,2.726z" stroke-dashoffset="0" stroke-miterlimit="4" marker-end="none" marker-mid="none" marker-start="none" fill-rule="evenodd" fill="#ffcc00"/>
   <path id="path4099" d="m155.132,130.85496c0.00116,1.12429 -0.59794,2.16359 -1.57136,2.72605c-0.97345,0.56245 -2.17307,0.56245 -3.14652,0c-0.97339,-0.56246 -1.57252,-1.60176 -1.57135,-2.72605c-0.00117,-1.1242 0.59796,-2.16355 1.57135,-2.72601c0.97345,-0.56245 2.17307,-0.56245 3.14652,0c0.97342,0.56246 1.57252,1.60181 1.57136,2.72601z" stroke-dashoffset="0" stroke-miterlimit="4" marker-end="none" marker-mid="none" marker-start="none" fill-rule="evenodd" fill="#ffcc00"/>
   <path id="path4101" d="m163.47104,138.16591c0.00117,1.12428 -0.59796,2.16359 -1.57135,2.72604c-0.97347,0.56246 -2.17307,0.56246 -3.14652,0c-0.97342,-0.56245 -1.57252,-1.60176 -1.57136,-2.72604c-0.00116,-1.12421 0.59794,-2.16355 1.57136,-2.72601c0.97345,-0.56246 2.17305,-0.56246 3.14652,0c0.97339,0.56246 1.57252,1.6018 1.57135,2.72601z" stroke-dashoffset="0" stroke-miterlimit="4" marker-end="none" marker-mid="none" marker-start="none" fill-rule="evenodd" fill="#ffcc00"/>
   <path id="path4103" d="m174.09471,134.28197c0.00115,1.12428 -0.59796,2.16356 -1.57138,2.72601c-0.97343,0.56245 -2.17307,0.56245 -3.14652,0c-0.97338,-0.56245 -1.57251,-1.60173 -1.57136,-2.72601c-0.00114,-1.12419 0.59798,-2.16355 1.57137,-2.726c0.97345,-0.56245 2.17308,-0.56245 3.14651,0c0.97342,0.56245 1.57253,1.60181 1.57138,2.726z" stroke-dashoffset="0" stroke-miterlimit="4" marker-end="none" marker-mid="none" marker-start="none" fill-rule="evenodd" fill="#ffcc00"/>
   <path id="path4105" d="m235.2314,129.82669c0.0052,9.00777 -7.29556,16.31278 -16.30336,16.31278c-9.00778,0 -16.30855,-7.30501 -16.30336,-16.31278c-0.00519,-9.00781 7.29558,-16.31279 16.30336,-16.31279c9.0078,0 16.30856,7.30498 16.30336,16.31279z" stroke-dashoffset="0" stroke-miterlimit="4" marker-end="none" marker-mid="none" marker-start="none" fill-rule="evenodd" fill="#ffcc00"/>
   <path id="path4107" d="m223.95766,119.37465c0.00116,1.12424 -0.59795,2.16359 -1.57137,2.726c-0.97343,0.5625 -2.17305,0.5625 -3.14651,0c-0.97339,-0.56241 -1.57251,-1.60176 -1.57135,-2.726c-0.00116,-1.12421 0.59796,-2.16359 1.57135,-2.72601c0.97346,-0.5625 2.17308,-0.5625 3.14651,0c0.97342,0.56242 1.57253,1.6018 1.57137,2.72601z" stroke-dashoffset="0" stroke-miterlimit="4" marker-end="none" marker-mid="none" marker-start="none" fill-rule="evenodd" fill="#ffcc00"/>
   <path id="path4109" d="m232.81068,126.62834c0.00116,1.12424 -0.59794,2.16359 -1.57136,2.726c-0.97343,0.5625 -2.17307,0.5625 -3.14652,0c-0.97338,-0.56241 -1.57251,-1.60176 -1.57136,-2.726c-0.00114,-1.12425 0.59798,-2.16359 1.57136,-2.72601c0.97345,-0.5625 2.17308,-0.5625 3.14652,0c0.97342,0.56242 1.57252,1.60176 1.57136,2.72601z" stroke-dashoffset="0" stroke-miterlimit="4" marker-end="none" marker-mid="none" marker-start="none" fill-rule="evenodd" fill="#ffcc00"/>
   <path id="path4111" d="m222.73904,129.5981c0.00138,1.32167 -0.70295,2.5435 -1.84726,3.20465c-1.14439,0.66126 -2.55464,0.66126 -3.699,0c-1.14433,-0.66115 -1.84863,-1.88298 -1.84728,-3.20465c-0.00135,-1.32158 0.70295,-2.54349 1.84728,-3.20464c1.14436,-0.66122 2.55461,-0.66122 3.699,0c1.14431,0.66115 1.84864,1.88306 1.84726,3.20464z" stroke-dashoffset="0" stroke-miterlimit="4" marker-end="none" marker-mid="none" marker-start="none" fill-rule="evenodd" fill="#ffcc00"/>
   <path id="path4113" d="m213.61945,122.85867c0.00114,1.12424 -0.59796,2.16355 -1.57137,2.726c-0.97345,0.56247 -2.17308,0.56247 -3.14653,0c-0.97339,-0.56245 -1.57251,-1.60176 -1.57135,-2.726c-0.00116,-1.12423 0.59796,-2.16359 1.57135,-2.72601c0.97345,-0.56248 2.17308,-0.56248 3.14653,0c0.97341,0.56242 1.57251,1.60178 1.57137,2.72601z" stroke-dashoffset="0" stroke-miterlimit="4" marker-end="none" marker-mid="none" marker-start="none" fill-rule="evenodd" fill="#ffcc00"/>
   <path id="path4115" d="m211.56325,133.13959c0.00116,1.12428 -0.59796,2.16359 -1.57137,2.72604c-0.97345,0.56246 -2.17305,0.56246 -3.14651,0c-0.97341,-0.56245 -1.57253,-1.60176 -1.57135,-2.72604c-0.00118,-1.12421 0.59794,-2.16356 1.57135,-2.72597c0.97346,-0.5625 2.17306,-0.5625 3.14651,0c0.97341,0.56241 1.57253,1.60176 1.57137,2.72597z" stroke-dashoffset="0" stroke-miterlimit="4" marker-end="none" marker-mid="none" marker-start="none" fill-rule="evenodd" fill="#ffcc00"/>
   <path id="path4117" d="m219.9023,140.45053c0.00114,1.12428 -0.59798,2.16359 -1.57137,2.72605c-0.97345,0.56245 -2.17308,0.56245 -3.14651,0c-0.97342,-0.56246 -1.57253,-1.60177 -1.57137,-2.72605c-0.00116,-1.12421 0.59795,-2.16354 1.57137,-2.72597c0.97343,-0.5625 2.17306,-0.5625 3.14651,0c0.97339,0.56243 1.57251,1.60177 1.57137,2.72597z" stroke-dashoffset="0" stroke-miterlimit="4" marker-end="none" marker-mid="none" marker-start="none" fill-rule="evenodd" fill="#ffcc00"/>
   <path id="path4119" d="m230.52608,136.56659c0.00114,1.12425 -0.59796,2.16356 -1.57137,2.72601c-0.97345,0.56246 -2.17308,0.56246 -3.14651,0c-0.97341,-0.56245 -1.57253,-1.60176 -1.57135,-2.72601c-0.00118,-1.12419 0.59794,-2.16359 1.57135,-2.726c0.97343,-0.56245 2.17306,-0.56245 3.14651,0c0.97341,0.56241 1.57251,1.60181 1.57137,2.726z" stroke-dashoffset="0" stroke-miterlimit="4" marker-end="none" marker-mid="none" marker-start="none" fill-rule="evenodd" fill="#ffcc00"/>
   <path id="path4121" d="m286.52213,138.16566c0.00521,9.00782 -7.29557,16.31279 -16.30338,16.31279c-9.00775,0 -16.3085,-7.30497 -16.30331,-16.31279c-0.00519,-9.00775 7.29556,-16.31277 16.30331,-16.31277c9.00781,0 16.30859,7.30502 16.30338,16.31277z" stroke-dashoffset="0" stroke-miterlimit="4" marker-end="none" marker-mid="none" marker-start="none" fill-rule="evenodd" fill="#ffcc00"/>
   <path id="path4123" d="m275.24841,127.71367c0.00119,1.12428 -0.59793,2.16359 -1.57132,2.72604c-0.97348,0.56246 -2.17309,0.56246 -3.14651,0c-0.97345,-0.56245 -1.57254,-1.60176 -1.57141,-2.72604c-0.00113,-1.12421 0.59796,-2.16354 1.57141,-2.72601c0.97342,-0.56246 2.17303,-0.56246 3.14651,0c0.97339,0.56247 1.57251,1.6018 1.57132,2.72601z" stroke-dashoffset="0" stroke-miterlimit="4" marker-end="none" marker-mid="none" marker-start="none" fill-rule="evenodd" fill="#ffcc00"/>
   <path id="path4125" d="m284.10144,134.96736c0.00116,1.12428 -0.59796,2.16359 -1.57135,2.726c-0.97348,0.56247 -2.17303,0.56247 -3.14651,0c-0.97339,-0.56241 -1.57252,-1.60172 -1.57135,-2.726c-0.00117,-1.12421 0.59796,-2.16354 1.57135,-2.72597c0.97348,-0.5625 2.17303,-0.5625 3.14651,0c0.97339,0.56243 1.57251,1.60177 1.57135,2.72597z" stroke-dashoffset="0" stroke-miterlimit="4" marker-end="none" marker-mid="none" marker-start="none" fill-rule="evenodd" fill="#ffcc00"/>
   <path id="path4127" d="m274.02979,137.93713c0.00137,1.32166 -0.70295,2.54349 -1.84723,3.20468c-1.14438,0.66123 -2.55466,0.66123 -3.69904,0c-1.14429,-0.66119 -1.8486,-1.88302 -1.84723,-3.20468c-0.00137,-1.32159 0.70294,-2.54345 1.84723,-3.20463c1.14438,-0.66124 2.55466,-0.66124 3.69904,0c1.14428,0.66118 1.8486,1.88304 1.84723,3.20463z" stroke-dashoffset="0" stroke-miterlimit="4" marker-end="none" marker-mid="none" marker-start="none" fill-rule="evenodd" fill="#ffcc00"/>
   <path id="path4129" d="m264.91019,131.19769c0.00119,1.12424 -0.5979,2.16356 -1.57135,2.72597c-0.97342,0.5625 -2.17307,0.5625 -3.14652,0c-0.97339,-0.56241 -1.57254,-1.60173 -1.57135,-2.72597c-0.00119,-1.12419 0.59796,-2.16359 1.57135,-2.726c0.97345,-0.56245 2.1731,-0.56245 3.14652,0c0.97345,0.56241 1.57254,1.60181 1.57135,2.726z" stroke-dashoffset="0" stroke-miterlimit="4" marker-end="none" marker-mid="none" marker-start="none" fill-rule="evenodd" fill="#ffcc00"/>
   <path id="path4131" d="m262.85403,141.47865c0.0011,1.12429 -0.59799,2.16355 -1.57138,2.72597c-0.97345,0.56249 -2.17306,0.56249 -3.14651,0c-0.97342,-0.56242 -1.57251,-1.60168 -1.57138,-2.72597c-0.00113,-1.1242 0.59796,-2.16359 1.57138,-2.72601c0.97345,-0.5625 2.17306,-0.5625 3.14651,0c0.97339,0.56242 1.57248,1.60181 1.57138,2.72601z" stroke-dashoffset="0" stroke-miterlimit="4" marker-end="none" marker-mid="none" marker-start="none" fill-rule="evenodd" fill="#ffcc00"/>
   <path id="path4133" d="m271.19302,148.7896c0.00119,1.12428 -0.59793,2.16354 -1.57132,2.72596c-0.97348,0.5625 -2.17306,0.5625 -3.14651,0c-0.97339,-0.56242 -1.57251,-1.60168 -1.57141,-2.72596c-0.0011,-1.12421 0.59802,-2.16359 1.57141,-2.72602c0.97345,-0.56245 2.17303,-0.56245 3.14651,0c0.97339,0.56243 1.57251,1.60181 1.57132,2.72602z" stroke-dashoffset="0" stroke-miterlimit="4" marker-end="none" marker-mid="none" marker-start="none" fill-rule="evenodd" fill="#ffcc00"/>
   <path id="path4135" d="m281.81683,144.90562c0.00113,1.12424 -0.59796,2.16359 -1.57135,2.726c-0.97345,0.5625 -2.17306,0.5625 -3.14651,0c-0.97342,-0.56241 -1.57251,-1.60176 -1.57138,-2.726c-0.00113,-1.1242 0.59796,-2.16359 1.57138,-2.72601c0.97345,-0.5625 2.17306,-0.5625 3.14651,0c0.97339,0.56242 1.57248,1.60181 1.57135,2.72601z" stroke-dashoffset="0" stroke-miterlimit="4" marker-end="none" marker-mid="none" marker-start="none" fill-rule="evenodd" fill="#ffcc00"/>
   <path id="path4141" d="m279.35977,171.40758c0,12.23938 -52.5771,22.1613 -117.43432,22.1613c-64.85726,0 -117.43441,-9.92192 -117.43441,-22.1613c0,-12.23929 52.57715,-22.16121 117.43441,-22.16121c64.85722,0 117.43432,9.92192 117.43432,22.16121z" stroke-dashoffset="0" stroke-miterlimit="4" marker-end="none" marker-mid="none" marker-start="none" stroke-width="0.398769" fill-rule="evenodd" fill="#ffcc00"/>
   <path d="m71.13496,171.07196c67.66721,14.00958 113.10164,13.78014 181.90575,0.16153c-68.87433,-13.86641 -113.83917,-14.32411 -181.90575,-0.16153z" id="path5016" stroke-width="1px" fill-rule="evenodd" fill="#ffcc00"/>
   <path d="m175.63359,111.09244l32.21381,1.25654c-11.23296,8.30095 -14.81227,21.7424 -2.85584,32.0996l-30.90181,-1.25658c8.7198,-7.84402 14.75682,-17.28732 1.54384,-32.09956z" id="path5018" stroke-width="1px" fill-rule="evenodd" fill="#ffcc00"/>
   <path d="m234.56935,115.08713l27.42186,4.57912c-10.5542,7.08261 -15.143,20.06204 -6.0881,31.58479l-27.12862,-4.5437c8.3519,-6.8887 15.41918,-15.54294 5.79486,-31.62021z" id="path5020" stroke-width="0.928204px" fill-rule="evenodd" fill="#ffcc00"/>
   <path d="m117.79318,112.62924l32.16892,-2.11401c-10.30477,9.42851 -12.461,23.17024 0.51153,32.22233l-30.8641,1.97696c7.85309,-8.71165 12.87108,-18.73365 -1.81635,-32.08528z" id="path5022" stroke-width="1px" fill-rule="evenodd" fill="#ffcc00"/>
   <path d="m64.4928,120.42874l26.93896,-5.02679c-7.39718,10.25169 -7.28785,24.01793 4.9703,31.77098l-26.65543,4.96033c5.42234,-9.31981 9.06167,-19.86252 -5.25383,-31.70452z" id="path5024" stroke-width="0.921364px" fill-rule="evenodd" fill="#ffcc00"/>
   <path d="m144.47884,105.80556l32.31009,0c-7.80826,-2.15399 -10.77002,-5.43886 -15.50884,-11.30852c-4.73883,5.86966 -8.50833,8.66988 -16.80125,11.30852z" id="path1360" stroke-width="1px" fill-rule="evenodd" fill="#ffcc00"/>
   <path d="m79.92073,112.21501l32.03717,-4.19067c-8.02168,-1.12308 -11.38446,-3.99604 -16.84457,-9.20149c-3.93746,6.4347 -7.31196,9.70018 -15.1926,13.39216z" id="path1362" stroke-width="1px" fill-rule="evenodd" fill="#ffcc00"/>
   <path d="m208.68036,107.29547l32.05655,4.0397c-7.47769,-3.11338 -10.0055,-6.74275 -13.97327,-13.15883c-5.4355,5.2311 -9.52551,7.53804 -18.08328,9.11913z" id="path1364" stroke-width="1px" fill-rule="evenodd" fill="#ffcc00"/>
   <path d="m268.63031,115.74092c8.00324,2.11196 12.05405,3.59154 14.70111,4.84653c3.25794,-3.66184 3.60794,-4.5773 5.16962,-11.47009c-7.70279,5.13713 -9.14957,6.48312 -19.87073,6.62356z" id="path1366" stroke-width="1px" fill-rule="evenodd" fill="#ffcc00"/>
   <path id="path1368" d="m268.63031,115.74092c8.00324,2.11196 12.05405,3.59154 14.70111,4.84653c3.25794,-3.66184 3.60794,-4.5773 5.16962,-11.47009c-7.70279,5.13713 -9.14957,6.48312 -19.87073,6.62356z" stroke-width="1px" fill-rule="evenodd" fill="#ffcc00"/>
   <path id="path1370" d="m54.73759,116.54868c-8.00322,2.1119 -12.05408,3.59153 -14.70108,4.84649c-3.25793,-3.66179 -3.60797,-4.57727 -5.16962,-11.47008c7.70279,5.13717 9.14954,6.4831 19.8707,6.62359z" stroke-width="1px" fill-rule="evenodd" fill="#ffcc00"/>
   <path d="m54.73759,116.54868c-8.00322,2.1119 -12.05408,3.59153 -14.70108,4.84649c-3.25793,-3.66179 -3.60797,-4.57727 -5.16962,-11.47008c7.70279,5.13717 9.14954,6.4831 19.8707,6.62359z" id="path1372" stroke-width="1px" fill-rule="evenodd" fill="#ffcc00"/>
   <path id="path1374" d="m177.5643,73.98004c0,4.44733 -7.29068,8.05261 -16.28421,8.05261c-8.99348,0 -16.28421,-3.60528 -16.28421,-8.05261c0,-4.44734 7.29073,-8.05262 16.28421,-8.05262c8.99353,0 16.28421,3.60528 16.28421,8.05262z" stroke-dashoffset="0" stroke-miterlimit="4" marker-end="none" marker-mid="none" marker-start="none" fill-rule="evenodd" fill="#ffcc00"/>
   <path id="path2249" d="m245.79633,79.04677c-0.50135,4.41899 -8.15198,7.17941 -17.08818,6.16559c-8.93618,-1.0138 -15.77401,-5.41796 -15.27268,-9.83696c0.50134,-4.41899 8.15199,-7.17942 17.08818,-6.16561c8.93619,1.01383 15.77402,5.41797 15.27268,9.83698z" stroke-dashoffset="0" stroke-miterlimit="4" marker-end="none" marker-mid="none" marker-start="none" fill-rule="evenodd" fill="#ffcc00"/>
   <path id="path2251" d="m108.78363,75.54547c0.5432,4.41403 -6.25258,8.88277 -15.17877,9.98123c-8.92617,1.09842 -16.60266,-1.58935 -17.14585,-6.00342c-0.54319,-4.41404 6.25261,-8.88279 15.17877,-9.98123c8.92622,-1.09845 16.60265,1.58937 17.14585,6.00342z" stroke-dashoffset="0" stroke-miterlimit="4" marker-end="none" marker-mid="none" marker-start="none" fill-rule="evenodd" fill="#ffcc00"/>
   <path id="path2253" d="m51.52924,83.01054c2.03401,3.95495 -2.80058,10.49552 -10.7984,14.60874c-7.99777,4.1132 -16.13018,4.24156 -18.1642,0.2866c-2.03402,-3.95494 2.80062,-10.49551 10.7984,-14.60871c7.99781,-4.11327 16.13019,-4.24158 18.1642,-0.28663z" stroke-dashoffset="0" stroke-miterlimit="4" marker-end="none" marker-mid="none" marker-start="none" fill-rule="evenodd" fill="#ffcc00"/>
   <path id="path2255" d="m299.43021,96.73453c-1.80231,4.06576 -9.92859,4.40704 -18.15046,0.76228c-8.22186,-3.64476 -13.42596,-9.89537 -11.62356,-13.96112c1.80231,-4.06576 9.92862,-4.40703 18.15042,-0.76227c8.22192,3.64475 13.42593,9.89536 11.6236,13.96111z" stroke-dashoffset="0" stroke-miterlimit="4" marker-end="none" marker-mid="none" marker-start="none" fill-rule="evenodd" fill="#ffcc00"/>
   <path d="m36.56318,101.92835c9.42376,-2.31556 11.73932,-5.43885 16.15504,-10.82386c11.25465,0.70004 15.56267,0.26923 22.61703,-5.16961c16.63971,5.385 22.13242,4.79264 36.34887,-4.68499c9.47761,6.46204 22.83245,5.81583 31.50233,-0.80775c13.46252,7.05437 24.66333,6.67743 35.21795,0.16156c12.33168,6.13891 16.90897,6.94667 30.6946,0.9693c14.91647,8.50831 22.2401,9.42378 35.54108,4.36187c7.75442,5.65424 13.40866,6.46201 23.10174,5.00806c4.95419,6.94667 10.06995,9.04683 16.47809,10.98544c-3.71561,18.68596 -52.0192,12.00853 -57.18881,-9.36994c-8.29292,13.78562 -48.41129,15.13189 -66.55876,-3.23101c-11.20084,12.87018 -55.68103,20.73229 -67.04342,3.23101c-7.00052,22.02471 -55.19638,27.89434 -56.86574,9.36991l0,0.00001z" id="path2257" stroke-miterlimit="4" stroke-width="0.4" fill-rule="evenodd" fill="#ffcc00"/>
   <path d="m166.93436,60.40989c2.01938,-18.4706 17.77053,-20.70538 24.71719,-10.82386l0,-19.38606c-0.07503,-0.75387 -0.37852,-2.19321 -1.9386,-2.26169l-13.67466,0.0767c-1.02317,-9.96229 -3.71892,-19.03194 -15.24286,-27.37873c-2.69251,1.50782 -14.75495,10.12382 -15.34729,27.30203l-13.24712,0c-1.5078,0.16154 -2.36942,-0.24234 -2.58481,1.45396l0,20.35533c8.15828,-11.30854 22.7786,-6.94668 24.7172,10.66232c4.9273,-2.26171 8.07753,-2.42327 12.60095,0z" id="path3132" stroke-miterlimit="4" stroke-width="0.3" fill-rule="evenodd" fill="#ffcc00"/>
   <path d="m97.67738,63.80153c-0.25648,-18.5789 15.10273,-22.72469 23.20661,-13.76771l-2.37273,-19.24032c-0.16675,-0.73904 -0.64413,-2.13038 -2.20087,-2.00743l-13.56246,1.74983c-2.23476,-9.76215 -6.02031,-18.43367 -18.47921,-25.30724c-2.48772,1.82599 -13.40492,11.85362 -11.89033,28.97513l-13.14753,1.62138c-1.47669,0.34488 -2.38126,0.0495 -2.38743,1.75939l2.49138,20.20228c6.71286,-12.22203 21.75712,-9.68237 25.83636,7.55697c4.61343,-2.84777 7.72019,-3.39368 12.50621,-1.54228z" id="path3134" stroke-miterlimit="4" stroke-width="0.3" fill-rule="evenodd" fill="#ffcc00"/>
   <path d="m236.7868,65.31368c4.23377,-18.09186 20.13947,-18.40937 25.84281,-7.76176l2.33966,-19.24433c0.01648,-0.75746 -0.11112,-2.22284 -1.65152,-2.47914l-13.58396,-1.57417c0.18665,-10.01297 -1.39483,-19.34167 -11.8272,-29.01823c-2.8548,1.17185 -15.8689,8.26912 -18.53008,25.25026l-13.15031,-1.59871c-1.51628,-0.02162 -2.32283,-0.52652 -2.74138,1.13135l-2.45661,20.20656c9.46344,-10.24125 23.45047,-4.14684 23.24976,13.56744c5.16423,-1.65055 8.31094,-1.43074 12.50883,1.52073z" id="path3136" stroke-miterlimit="4" stroke-width="0.3" fill-rule="evenodd" fill="#ffcc00"/>
   <path d="m320.97101,25.8662c-3.07102,0.3005 -18.263,3.9229 -25.69901,19.4198l-11.10501,-5.3164c-1.44598,-0.4571 -3.10098,-1.1728 -3.979,0.2945l-8.62598,17.8449c12.01099,-7.084 23.76599,2.892 18.47498,19.79901c4.20401,-0.66901 6.20401,1.80099 6.84302,0.40899l24.091,-52.4508l0,0z" id="path3138" stroke-miterlimit="4" stroke-width="0.3" fill-rule="evenodd" fill="#ffcc00"/>
   <path d="m1.05482,25.47771c3.07128,0.30056 18.26282,3.92292 25.69897,19.41951l11.10557,-5.31607c1.44591,-0.45709 3.1011,-1.17278 3.97909,0.29449l8.62553,17.8448c-12.01067,-7.08411 -23.76594,2.89247 -18.47513,19.79934c-4.20374,-0.66938 -6.20383,1.80062 -6.84311,0.40878l-24.09092,-52.45085z" id="path3140" stroke-miterlimit="4" stroke-width="0.3" fill-rule="evenodd" fill="#ffcc00"/>
  </g>
 </g>
</svg>