<svg width="300.439" height="300.439" xmlns="http://www.w3.org/2000/svg">
 <g>
  <title>background</title>
  <rect x="-1" y="-1" width="302.439" height="302.439" id="canvas_background" fill="none"/>
 </g>

 <g>
  <title>Layer 1</title>
  <g id="svg_1">
   <path d="m276.967,1l-84.498,0l-122.054,178.385l84.498,0l122.054,-178.385z" fill="#BF392C" id="svg_2"/>
   <path d="m23.472,1l84.498,0l122.053,178.385l-84.498,0l-122.053,-178.385z" fill="#E2574C" id="svg_3"/>
   <path d="m154.914,94.887c57.271,0 103.276,46.005 103.276,103.276s-46.005,103.276 -103.276,103.276s-103.276,-46.005 -103.276,-103.276s46.005,-103.276 103.276,-103.276z" fill="#cecece" id="svg_4"/>
   <path d="m154.914,123.053c-41.31,0 -75.11,33.799 -75.11,75.11s33.799,75.11 75.11,75.11s75.11,-33.799 75.11,-75.11s-33.8,-75.11 -75.11,-75.11zm0,131.442c-30.983,0 -56.332,-25.35 -56.332,-56.332s25.35,-56.332 56.332,-56.332s56.332,25.35 56.332,56.332s-25.35,56.332 -56.332,56.332z" fill="#828282" id="svg_5"/>
   <text fill="#666666" stroke-width="0" stroke-opacity="null" x="133.45443" y="191.371105" id="svg_21" font-size="24" font-family="Helvetica, Arial, sans-serif" text-anchor="start" xml:space="preserve" stroke="null" transform="matrix(3.9068807756309916,0,0,4.183271310717907,-391.5631993497395,-570.2170199495405) ">2</text>
  </g>
  <g id="svg_6"/>
  <g id="svg_7"/>
  <g id="svg_8"/>
  <g id="svg_9"/>
  <g id="svg_10"/>
  <g id="svg_11"/>
  <g id="svg_12"/>
  <g id="svg_13"/>
  <g id="svg_14"/>
  <g id="svg_15"/>
  <g id="svg_16"/>
  <g id="svg_17"/>
  <g id="svg_18"/>
  <g id="svg_19"/>
  <g id="svg_20"/>
 </g>
</svg>