<svg width="5.8208332" height="5.8208335" xmlns="http://www.w3.org/2000/svg">
 <defs>
  <linearGradient id="0" x1="0.493637" y1="0.990002" x2="0.485456" y2="0.075457">
   <stop stop-color="#ffeb96"/>
   <stop stop-color="#fff1b7" offset="1"/>
  </linearGradient>
 </defs>
 <g>
  <title>background</title>
  <rect fill="none" id="canvas_background" height="402" width="582" y="-1" x="-1"/>
 </g>
 <g>
  <title>Layer 1</title>
  <g id="svg_1" transform="matrix(0.126059484347105,0,0,0.126059484347105,-60.931918140593744,-60.173188575718555) ">
   <g id="svg_2" transform="matrix(4.18182,0,0,4.18182,-1537.14,-1677.22) ">
    <g id="svg_3">
     <circle id="svg_4" fill="url(#0)" r="5.5" cy="520.745746" cx="488.703649"/>
     <g id="svg_5" fill="#414141">
      <circle id="svg_6" cx="485.613649" cy="520.695746" r="0.6"/>
      <circle id="svg_7" cx="491.783649" cy="520.695746" r="0.6"/>
     </g>
    </g>
    <path id="svg_8" fill="#414141" d="m494.050829,519.182049c-1.176876,-0.184608 -3.421017,-0.221145 -5.03826,0.221145c-0.109611,0 -0.588438,0 -0.698049,0c-1.617243,-0.44229 -3.861384,-0.40383 -5.03826,-0.221145c-0.146148,0.036537 -0.146148,0.661512 -0.036537,0.698049c0.221145,0.109611 0.330756,0.330756 0.330756,0.330756c0,0 0.073074,0.221145 0.257682,1.028805c0.182685,0.811506 0.661512,0.959577 0.661512,0.959577c0,0 0.588438,0.146148 1.24995,0.146148c0.661512,0 1.067265,-0.036518 1.507632,-0.257663c0.440367,-0.221145 0.624975,-0.809583 0.624975,-0.809583c0,0 0.221145,-0.515364 0.367293,-0.992268c0.036537,-0.148071 0.773046,-0.148071 0.809583,0c0.146167,0.478827 0.367293,0.992268 0.367293,0.992268c0,0 0.184608,0.588457 0.624975,0.809583c0.44229,0.221145 0.84612,0.257663 1.507632,0.257663c0.661512,0 1.24995,-0.146148 1.24995,-0.146148c0,0 0.478827,-0.109611 0.661512,-0.955731c0.184608,-0.84612 0.257682,-1.028805 0.257682,-1.028805c0,0 0.109592,-0.221145 0.330737,-0.330756c0.150013,-0.03846 0.150013,-0.701895 0.001942,-0.701895"/>
   </g>
   <path id="svg_9" stroke-width="1.488" stroke-linecap="round" stroke-linejoin="round" stroke="#414141" fill-rule="evenodd" fill="none" d="m492.66235,510.908392c6.246,7.093 13.151,6.608 20.294,3.382"/>
  </g>
 </g>
</svg>