<svg id="Layer_1" data-name="Layer 1" xmlns="http://www.w3.org/2000/svg" viewBox="0 0 512 512"><defs><style>.cls-1{fill:#79d3d3;}.cls-2{fill:#d9e4e8;}.cls-3{fill:#141f38;}.cls-4{fill:#f4607f;}</style></defs><title>wall-clock-filled</title><path class="cls-1" d="M256,499.2A243.2,243.2,0,0,1,84,84,243.2,243.2,0,1,1,428,428,241.61,241.61,0,0,1,256,499.2Z"/><path class="cls-2" d="M256,448C150.13,448,64,361.87,64,256S150.13,64,256,64s192,86.13,192,192S361.87,448,256,448Z"/><path class="cls-3" d="M256,0C114.61,0,0,114.61,0,256S114.61,512,256,512,512,397.39,512,256,397.39,0,256,0ZM418.92,418.92a229.6,229.6,0,1,1,49.39-73.24A229.66,229.66,0,0,1,418.92,418.92ZM256,51.2C142.89,51.2,51.2,142.89,51.2,256S142.89,460.8,256,460.8,460.8,369.11,460.8,256,369.11,51.2,256,51.2ZM382.71,382.71A179.2,179.2,0,1,1,435.2,256,178,178,0,0,1,382.71,382.71Zm-28.06-46.16a12.8,12.8,0,1,1-18.1,18.1l-64-64a38.4,38.4,0,1,1-29.35-70.86v-79a12.8,12.8,0,1,1,25.6,0v79a38.42,38.42,0,0,1,21.86,52.76Z"/><path class="cls-4" d="M256,268.8A12.8,12.8,0,1,0,243.2,256,12.81,12.81,0,0,0,256,268.8Z"/></svg>